<?xml version="1.0" encoding="UTF-8" standalone="no"?>
<svg
   version="1.1"
   width="48"
   height="48"
   viewBox="0 0 48 48"
   xml:space="preserve"
   id="svg34"
   sodipodi:docname="logopessoalv2.svg"
   inkscape:version="1.3 (0e150ed6c4, 2023-07-21)"
   xmlns:inkscape="http://www.inkscape.org/namespaces/inkscape"
   xmlns:sodipodi="http://sodipodi.sourceforge.net/DTD/sodipodi-0.dtd"
   xmlns="http://www.w3.org/2000/svg"
   xmlns:svg="http://www.w3.org/2000/svg"><sodipodi:namedview
   id="namedview34"
   pagecolor="#ffffff"
   bordercolor="#000000"
   borderopacity="0.25"
   inkscape:showpageshadow="2"
   inkscape:pageopacity="0.0"
   inkscape:pagecheckerboard="0"
   inkscape:deskcolor="#d1d1d1"
   showgrid="false"
   inkscape:zoom="18.39008"
   inkscape:cx="28.602377"
   inkscape:cy="20.527371"
   inkscape:window-width="1920"
   inkscape:window-height="1017"
   inkscape:window-x="-8"
   inkscape:window-y="-8"
   inkscape:window-maximized="1"
   inkscape:current-layer="svg34" />&#10;<desc
   id="desc1">Created with Fabric.js 5.3.0</desc>&#10;<defs
   id="defs1"><linearGradient
   id="swatch37"
   inkscape:swatch="solid"><stop
     style="stop-color:#000017;stop-opacity:0;"
     offset="0"
     id="stop37" /></linearGradient><inkscape:path-effect
   effect="skeletal"
   id="path-effect1"
   is_visible="true"
   lpeversion="1"
   pattern="M 0,18.867925 C 0,8.4528302 8.4528302,0 18.867925,0 c 10.415094,0 18.867924,8.4528302 18.867924,18.867925 0,10.415094 -8.45283,18.867924 -18.867924,18.867924 C 8.4528302,37.735849 0,29.283019 0,18.867925 Z"
   copytype="single_stretched"
   prop_scale="1"
   scale_y_rel="false"
   spacing="0"
   normal_offset="0"
   tang_offset="0"
   prop_units="false"
   vertical_pattern="false"
   hide_knot="false"
   fuse_tolerance="0" /><linearGradient
   id="swatch182"
   inkscape:swatch="solid"><stop
     style="stop-color:#0d274d;stop-opacity:1;"
     offset="0"
     id="stop183" /></linearGradient><rect
   x="238.36736"
   y="137.55103"
   width="155.10204"
   height="171.02042"
   id="rect177" /><inkscape:path-effect
   effect="bspline"
   id="path-effect172"
   is_visible="true"
   lpeversion="1.3"
   weight="33.333333"
   steps="2"
   helper_size="0"
   apply_no_weight="true"
   apply_with_weight="true"
   only_selected="false"
   uniform="false" /><inkscape:path-effect
   effect="bspline"
   id="path-effect171"
   is_visible="true"
   lpeversion="1.3"
   weight="33.333333"
   steps="2"
   helper_size="0"
   apply_no_weight="true"
   apply_with_weight="true"
   only_selected="false"
   uniform="false" />&#10;<inkscape:path-effect
   effect="skeletal"
   id="path-effect1-3"
   is_visible="true"
   lpeversion="1"
   pattern="M 0,18.867925 C 0,8.4528302 8.4528302,0 18.867925,0 c 10.415094,0 18.867924,8.4528302 18.867924,18.867925 0,10.415094 -8.45283,18.867924 -18.867924,18.867924 C 8.4528302,37.735849 0,29.283019 0,18.867925 Z"
   copytype="single_stretched"
   prop_scale="1"
   scale_y_rel="false"
   spacing="0"
   normal_offset="0"
   tang_offset="0"
   prop_units="false"
   vertical_pattern="false"
   hide_knot="false"
   fuse_tolerance="0" /></defs>&#10;&#10;&#10;&#10;&#10;&#10;&#10;&#10;&#10;&#10;&#10;&#10;&#10;&#10;&#10;&#10;&#10;&#10;&#10;&#10;&#10;&#10;&#10;&#10;&#10;&#10;&#10;&#10;&#10;&#10;&#10;&#10;&#10;&#10;&#10;<path
   style="fill:#0d274d;fill-opacity:0;stroke:#000000;stroke-width:0.278022;stroke-dasharray:none;stroke-opacity:1"
   d="M 7.7642679,15.477789 C 7.5977955,5.0640252 13.86248,-3.490031 21.747938,-3.6160864 29.633396,-3.7421417 36.168296,4.6073028 36.334769,15.021067 36.501241,25.434831 30.236557,33.988887 22.351099,34.114942 14.46564,34.240997 7.9307403,25.891553 7.7642679,15.477789 Z"
   id="path1"
   inkscape:path-effect="#path-effect1"
   inkscape:original-d="M 7.7642679,15.477789 36.334744,15.021067"
   transform="matrix(-0.04391114,1.0386251,-0.78616336,-0.03959539,34.826704,-1.5213754)" /><path
   style="fill:#0d274d;fill-opacity:0;stroke:#000000;stroke-width:1.64522723;stroke-dasharray:none;stroke-opacity:1"
   d="M 7.7642679,15.477789 C 7.5977955,5.0640252 13.86248,-3.490031 21.747938,-3.6160864 29.633396,-3.7421417 36.168296,4.6073028 36.334769,15.021067 36.501241,25.434831 30.236557,33.988887 22.351099,34.114942 14.46564,34.240997 7.9307403,25.891553 7.7642679,15.477789 Z"
   id="path1-0"
   inkscape:path-effect="#path-effect1-3"
   inkscape:original-d="M 7.7642679,15.477789 36.334744,15.021067"
   transform="matrix(-0.04077453,0.96034183,-0.73000717,-0.03661101,33.897141,0.13429343)" /><ellipse
   style="fill:#000017;fill-opacity:1;stroke:#020300;stroke-width:0.633;stroke-dasharray:none;stroke-opacity:1"
   id="path36"
   cx="11.158977"
   cy="25.130198"
   rx="0.73349351"
   ry="0.73349297" /><path
   style="font-size:13.3333px;font-family:'Baskerville Old Face';-inkscape-font-specification:'Baskerville Old Face';text-align:center;text-anchor:middle;fill:#090909;stroke:#000000;stroke-width:0.1;stroke-miterlimit:4.1;stroke-dasharray:none"
   d="m 23.957292,15.732756 q -0.371093,0.01953 -0.598957,0.104167 -0.221353,0.07813 -0.410155,0.266926 -0.143229,0.136719 -0.214843,0.305989 -0.07161,0.16276 -0.09766,0.416666 -0.04557,0.33854 -0.04557,0.800779 v 4.798165 q 0,0.670571 0.07813,0.996091 0.07813,0.32552 0.279947,0.520832 0.358072,0.345051 1.009112,0.377603 v 0.14974 H 19.79715 v -0.14974 q 0.377604,-0.01953 0.605468,-0.104166 0.234374,-0.09115 0.416665,-0.273437 0.201823,-0.208333 0.273437,-0.527342 0.07813,-0.32552 0.07813,-0.989581 V 16.60515 l -3.352856,7.864564 h -0.136728 l -3.333325,-7.747377 v 5.703111 q 0,0.670571 0.07162,0.989581 0.07813,0.319009 0.279947,0.527342 0.182291,0.188802 0.410155,0.273437 0.234375,0.08463 0.605467,0.104166 v 0.14974 h -3.001294 v -0.14974 q 0.371093,-0.01953 0.598957,-0.104166 0.234374,-0.08464 0.416665,-0.273437 0.201823,-0.208333 0.273437,-0.527342 0.07813,-0.32552 0.07813,-0.989581 v -4.798165 q 0,-0.299479 -0.01953,-0.566405 -0.03255,-0.48177 -0.149739,-0.703123 -0.16276,-0.305989 -0.449218,-0.449218 -0.279947,-0.149739 -0.748696,-0.175781 v -0.149739 h 2.825514 l 2.819003,6.959618 2.92317,-6.959618 h 2.675774 z m 3.437492,4.095042 v 2.59765 q 0,0.664061 0.07161,0.98307 0.07161,0.312499 0.273437,0.527343 0.175781,0.188801 0.410155,0.279947 0.240885,0.08463 0.611978,0.104166 v 0.14974 h -4.160146 v -0.14974 q 0.312499,0 0.592446,-0.09766 0.279948,-0.104166 0.436197,-0.273436 0.182291,-0.201823 0.260416,-0.553385 0.07813,-0.351561 0.07813,-0.970049 v -4.798165 q 0,-0.416666 -0.04557,-0.865883 -0.0651,-0.572916 -0.559894,-0.852863 -0.273437,-0.149739 -0.761717,-0.175781 v -0.149735 h 6.803368 l 0.188802,2.11588 -0.149739,0.03255 q -0.16276,-0.49479 -0.299479,-0.742185 -0.305989,-0.566405 -0.859373,-0.878904 -0.319009,-0.182292 -0.735675,-0.253906 -0.416666,-0.07161 -1.14583,-0.07161 h -1.009112 v 3.841136 h 0.260416 q 1.15234,0 1.673172,-0.514322 0.227865,-0.221353 0.345052,-0.520832 0.117187,-0.305989 0.156249,-0.794269 l 0.14974,0.0065 -0.03906,3.945302 h -0.156249 q -0.07161,-0.664061 -0.247396,-1.022133 -0.16927,-0.364582 -0.520832,-0.585936 -0.260416,-0.16276 -0.644529,-0.234374 -0.377604,-0.07813 -0.97656,-0.07813 z"
   id="text37"
   aria-label="MF" /></svg>
